<svg xmlns="http://www.w3.org/2000/svg" viewBox="0 0 260.25 180"><defs><style>.cls-1,.cls-2{fill:none;stroke:#fbb03b;stroke-miterlimit:10;}.cls-1{stroke-width:2px;stroke-dasharray:10;}.cls-2{stroke-width:3px;}.cls-3{fill:#fbb03b;}</style></defs><title>Asset 18</title><g id="Layer_2" data-name="Layer 2"><g id="Layer_1-2" data-name="Layer 1"><line class="cls-1" x1="205.75" y1="169" x2="206.75" y2="87.5"/><line class="cls-1" x1="142.75" y1="170" x2="61.75" y2="10"/><line class="cls-1" x1="205.75" y1="169" x2="143.75" y2="10"/><line class="cls-1" x1="61.75" y1="170" x2="20.75" y2="89.5"/><line class="cls-1" x1="61.75" y1="170" x2="61.75" y2="10"/><line class="cls-1" x1="142.75" y1="170" x2="143.75" y2="10"/><line class="cls-2" x1="0.01" y1="10.46" x2="249.48" y2="10.02"/><polygon class="cls-3" points="247.31 17.5 260.25 10 247.28 2.54 247.31 17.5"/><line class="cls-2" x1="0.01" y1="88.5" x2="249.48" y2="88.5"/><polygon class="cls-3" points="247.29 95.98 260.25 88.5 247.29 81.02 247.29 95.98"/><line class="cls-2" x1="0.01" y1="170.46" x2="248.48" y2="169.54"/><polygon class="cls-3" points="246.32 177.03 259.25 169.5 246.27 162.07 246.32 177.03"/><circle class="cls-3" cx="61.75" cy="10" r="10"/><circle class="cls-3" cx="205.75" cy="169" r="10"/><circle class="cls-3" cx="206.75" cy="87" r="10"/><circle class="cls-3" cx="60.75" cy="170" r="10"/><circle class="cls-3" cx="142.75" cy="170" r="10"/><circle class="cls-3" cx="20.75" cy="88" r="10"/><circle class="cls-3" cx="143.75" cy="10" r="10"/></g></g></svg>